<svg id="Layer_1" data-name="Layer 1" xmlns="http://www.w3.org/2000/svg" viewBox="0 0 256 256"><defs><style>.cls-1{fill:#f7931e;}</style></defs><title>Artboard 1</title><circle class="cls-1" cx="128" cy="128" r="128"/><path d="M180.14,62l1.91-9a3.14,3.14,0,0,0-3.15-4h-6a5.21,5.21,0,0,0-4.85,4l-1.91,9h-14l1.91-9a3.14,3.14,0,0,0-3.15-4h-6a5.21,5.21,0,0,0-4.85,4l-1.91,9H60L40,86H172a12,12,0,0,1,12,12v12a12,12,0,0,1-12,12H110.38l5.1-24h-32L60.1,208h32l13.18-62h15l-1.91,9a3.14,3.14,0,0,0,3.15,4h6a5.21,5.21,0,0,0,4.85-4l1.91-9h14l-1.91,9a3.14,3.14,0,0,0,3.15,4h6a5.21,5.21,0,0,0,4.85-4l1.91-9H192a24,24,0,0,0,24-24V86a24,24,0,0,0-24-24Z"/></svg>